<?xml version="1.0" encoding="UTF-8"?>
<!DOCTYPE svg PUBLIC "-//W3C//DTD SVG 1.1//EN" "http://www.w3.org/Graphics/SVG/1.1/DTD/svg11.dtd">
<!-- Creator: CorelDRAW -->
<svg xmlns="http://www.w3.org/2000/svg" xml:space="preserve" width="10.5926mm" height="10.5926mm" version="1.1" style="shape-rendering:geometricPrecision; text-rendering:geometricPrecision; image-rendering:optimizeQuality; fill-rule:evenodd; clip-rule:evenodd"
viewBox="0 0 10.84 10.84"
 xmlns:xlink="http://www.w3.org/1999/xlink"
 xmlns:xodm="http://www.corel.com/coreldraw/odm/2003">
 <defs>
  <style type="text/css">
   <![CDATA[
    .fil0 {fill:#50B17E;fill-rule:nonzero}
    .fil1 {fill:white;fill-rule:nonzero}
   ]]>
  </style>
 </defs>
 <g id="Capa_x0020_1">
  <metadata id="CorelCorpID_0Corel-Layer"/>
  <path class="fil0" d="M10.84 5.42c0,2.99 -2.42,5.42 -5.42,5.42 -2.99,0 -5.42,-2.42 -5.42,-5.42 0,-2.99 2.42,-5.42 5.42,-5.42 2.99,0 5.42,2.42 5.42,5.42z"/>
  <g id="_3225772216208">
   <g>
    <g>
     <g>
      <path class="fil1" d="M4.9 8.88c-1.62,0 -2.94,-1.32 -2.94,-2.94 0,-1.62 1.32,-2.94 2.94,-2.94 0.72,0 1.41,0.26 1.95,0.74 0.02,0.02 0.03,0.06 0,0.08 -0.02,0.02 -0.06,0.03 -0.08,0 -0.52,-0.46 -1.19,-0.71 -1.88,-0.71 -1.56,0 -2.83,1.27 -2.83,2.83 0,1.56 1.27,2.83 2.83,2.83 1.56,0 2.83,-1.27 2.83,-2.83 0,-0.68 -0.24,-1.34 -0.69,-1.85 -0.01,-0 -0.02,-0.01 -0.03,-0.02 -0.02,-0.02 -0.02,-0.06 0.01,-0.08l0.01 -0.01c0.02,-0.02 0.06,-0.02 0.08,0.01 0.48,0.54 0.74,1.23 0.74,1.95 0,1.62 -1.32,2.94 -2.94,2.94z"/>
     </g>
     <g>
      <path class="fil1" d="M8.01 3.64l0 0c-0.04,0 -0.07,-0 -0.11,-0.02l-0.52 -0.12c-0.02,-0 -0.04,-0.02 -0.04,-0.04l-0.12 -0.52c-0.04,-0.14 -0,-0.29 0.1,-0.39l0.57 -0.57c0.01,-0.01 0.04,-0.02 0.06,-0.01 0.02,0.01 0.04,0.02 0.04,0.04l0.17 0.68 0.68 0.17c0.02,0 0.04,0.02 0.04,0.04 0.01,0.02 0,0.04 -0.01,0.06l-0.57 0.57c-0.08,0.08 -0.18,0.12 -0.28,0.12zm-0.57 -0.24l0.48 0.12c0.03,0.01 0.06,0.01 0.08,0.01l0 0c0.07,0 0.15,-0.03 0.2,-0.09l0.5 -0.5 -0.62 -0.15c-0.02,-0 -0.04,-0.02 -0.04,-0.04l-0.15 -0.62 -0.5 0.5c-0.08,0.08 -0.1,0.18 -0.07,0.28l0.12 0.49z"/>
     </g>
     <g>
      <path class="fil1" d="M4.9 8.35c-1.33,0 -2.41,-1.08 -2.41,-2.41 0,-1.33 1.08,-2.41 2.41,-2.41 0.58,0 1.13,0.21 1.57,0.58 0.02,0.02 0.03,0.06 0.01,0.08 -0.02,0.02 -0.06,0.03 -0.08,0.01 -0.41,-0.36 -0.95,-0.55 -1.49,-0.55 -1.27,0 -2.3,1.03 -2.3,2.3 0,1.26 1.03,2.29 2.3,2.29 1.26,0 2.29,-1.03 2.29,-2.29 0,-0.54 -0.19,-1.07 -0.55,-1.49 -0.02,-0.02 -0.02,-0.06 0.01,-0.08 0.02,-0.02 0.06,-0.02 0.08,0.01 0.37,0.43 0.57,0.99 0.57,1.56 0,1.33 -1.08,2.41 -2.41,2.41z"/>
     </g>
     <g>
      <path class="fil1" d="M4.9 7.76c-1.01,0 -1.82,-0.82 -1.82,-1.82 0,-1.01 0.82,-1.82 1.82,-1.82 0.43,0 0.84,0.15 1.17,0.42 0.02,0.02 0.03,0.06 0.01,0.08 -0.02,0.02 -0.06,0.03 -0.08,0.01 -0.31,-0.26 -0.69,-0.4 -1.09,-0.4 -0.94,0 -1.71,0.77 -1.71,1.71 0,0.94 0.77,1.71 1.71,1.71 0.94,0 1.71,-0.77 1.71,-1.71 0,-0.4 -0.14,-0.79 -0.4,-1.1 -0.02,-0.02 -0.02,-0.06 0.01,-0.08 0.02,-0.02 0.06,-0.02 0.08,0.01 0.27,0.33 0.42,0.74 0.42,1.17 0,1.01 -0.82,1.83 -1.82,1.83z"/>
     </g>
     <g>
      <path class="fil1" d="M4.9 7.16c-0.68,0 -1.23,-0.55 -1.23,-1.22 0,-0.68 0.55,-1.23 1.23,-1.23 0.27,0 0.54,0.09 0.76,0.26 0.02,0.02 0.03,0.06 0.01,0.08 -0.02,0.02 -0.06,0.03 -0.08,0.01 -0.19,-0.15 -0.44,-0.24 -0.69,-0.24 -0.61,0 -1.11,0.5 -1.11,1.11 0,0.61 0.5,1.11 1.11,1.11 0.61,0 1.11,-0.5 1.11,-1.11 0,-0.26 -0.08,-0.5 -0.24,-0.7 -0.02,-0.02 -0.02,-0.06 0.01,-0.08 0.02,-0.02 0.06,-0.02 0.08,0.01 0.18,0.22 0.27,0.49 0.27,0.77 0,0.68 -0.55,1.22 -1.22,1.22z"/>
     </g>
     <g>
      <g>
       <path class="fil1" d="M4.9 5.99c-0.02,0 -0.03,-0.01 -0.04,-0.02 -0.01,-0.01 -0.02,-0.04 -0.01,-0.06 0.05,-0.18 0.73,-0.98 2.47,-2.72 0.01,-0.01 0.04,-0.02 0.06,-0.01 0.02,0.01 0.04,0.02 0.04,0.04l0.04 0.17 0.17 0.04c0.02,0 0.04,0.02 0.04,0.04 0.01,0.02 0,0.04 -0.01,0.06 -1.45,1.45 -2.52,2.42 -2.73,2.46 -0,0 -0.01,0 -0.01,0zm2.42 -2.64c-1.37,1.37 -2,2.09 -2.25,2.41 0.34,-0.25 1.11,-0.94 2.42,-2.24l-0.1 -0.03c-0.02,-0 -0.04,-0.02 -0.04,-0.04l-0.02 -0.1zm0.99 -0.52c-0,0 -0.01,-0 -0.01,-0l-0.2 -0.05c-0.02,-0 -0.04,-0.02 -0.04,-0.04l-0.05 -0.2c-0,-0.02 0,-0.04 0.01,-0.05l0.28 -0.28c0.09,-0.09 0.24,-0.09 0.33,0 0.09,0.09 0.09,0.24 0,0.33l-0.28 0.28c-0.01,0.01 -0.03,0.02 -0.04,0.02zm-0.15 -0.15l0.13 0.03 0.26 -0.26c0.05,-0.05 0.05,-0.12 0,-0.17 -0.05,-0.05 -0.12,-0.05 -0.17,0l-0.26 0.26 0.03 0.14z"/>
      </g>
     </g>
     <g>
      <path class="fil1" d="M4.9 6.5c-0.31,0 -0.57,-0.25 -0.57,-0.56 0,-0.31 0.25,-0.57 0.57,-0.57 0.12,0 0.23,0.04 0.33,0.11 0.01,0.01 0.02,0.02 0.02,0.04 0,0.02 -0,0.03 -0.01,0.04 -0.07,0.08 -0.12,0.15 -0.16,0.2 0.05,-0.04 0.12,-0.09 0.2,-0.16 0.01,-0.01 0.03,-0.01 0.04,-0.01 0.02,0 0.03,0.01 0.04,0.02 0.07,0.1 0.1,0.21 0.1,0.33 -0,0.31 -0.25,0.56 -0.57,0.56zm0 -1.02c-0.25,0 -0.45,0.2 -0.45,0.45 0,0.25 0.2,0.45 0.45,0.45 0.25,0 0.45,-0.2 0.45,-0.45 0,-0.07 -0.02,-0.14 -0.05,-0.21 -0.3,0.24 -0.36,0.26 -0.39,0.26 -0.02,0 -0.04,-0 -0.05,-0.02 -0.01,-0.01 -0.02,-0.04 -0.01,-0.05 0.01,-0.04 0.05,-0.12 0.26,-0.38 -0.06,-0.03 -0.14,-0.05 -0.21,-0.05z"/>
     </g>
    </g>
   </g>
  </g>
 </g>
</svg>
