<?xml version="1.0" encoding="UTF-8"?>
<!DOCTYPE svg PUBLIC "-//W3C//DTD SVG 1.1//EN" "http://www.w3.org/Graphics/SVG/1.1/DTD/svg11.dtd">
<!-- Creator: CorelDRAW -->
<svg xmlns="http://www.w3.org/2000/svg" xml:space="preserve" width="10.5926mm" height="10.5926mm" version="1.1" style="shape-rendering:geometricPrecision; text-rendering:geometricPrecision; image-rendering:optimizeQuality; fill-rule:evenodd; clip-rule:evenodd"
viewBox="0 0 11.39 11.39"
 xmlns:xlink="http://www.w3.org/1999/xlink"
 xmlns:xodm="http://www.corel.com/coreldraw/odm/2003">
 <defs>
  <style type="text/css">
   <![CDATA[
    .str0 {stroke:white;stroke-width:0.08;stroke-linecap:round;stroke-linejoin:round;stroke-miterlimit:22.9256}
    .fil1 {fill:none}
    .fil0 {fill:#50B17E;fill-rule:nonzero}
   ]]>
  </style>
 </defs>
 <g id="Capa_x0020_1">
  <metadata id="CorelCorpID_0Corel-Layer"/>
  <path class="fil0" d="M11.39 5.7c0,3.14 -2.54,5.7 -5.7,5.7 -3.14,0 -5.7,-2.54 -5.7,-5.7 0,-3.14 2.54,-5.7 5.7,-5.7 3.14,0 5.7,2.54 5.7,5.7z"/>
  <g id="_3225767854176">
   <g>
    <g>
     <g id="XMLID_00000090274654485133261540000016540411079149767811_">
      <g>
       <path class="fil1 str0" d="M6.23 2.27c-0.87,0 -1.58,0.71 -1.58,1.58 0,0.5 0.23,0.94 0.59,1.23l-0.5 0c-0.28,-0.33 -0.44,-0.76 -0.44,-1.23 0,-1.07 0.87,-1.94 1.93,-1.94 1.07,0 1.94,0.87 1.94,1.94 0,0.47 -0.17,0.9 -0.44,1.23l-0.5 0c0.36,-0.29 0.59,-0.73 0.59,-1.23 -0,-0.88 -0.71,-1.58 -1.59,-1.58z"/>
       <path class="fil1 str0" d="M5.88 4.38c-0.11,0 -0.18,0.07 -0.18,0.18 0,0.11 0.07,0.18 0.18,0.18l0.18 0c0,0.11 0.07,0.18 0.18,0.18 0.11,0 0.18,-0.07 0.18,-0.18 0.3,0 0.53,-0.23 0.53,-0.53 0,-0.3 -0.23,-0.53 -0.53,-0.53l-0.35 0c-0.11,0 -0.18,-0.07 -0.18,-0.18 0,-0.11 0.07,-0.18 0.18,-0.18l0.53 0c0.11,0 0.18,-0.07 0.18,-0.18 0,-0.11 -0.07,-0.18 -0.18,-0.18l-0.18 0c0,-0.11 -0.07,-0.18 -0.18,-0.18 -0.11,0 -0.18,0.07 -0.18,0.18 -0.3,0 -0.53,0.23 -0.53,0.53 0,0.3 0.23,0.53 0.53,0.53l0.35 0c0.11,0 0.18,0.07 0.18,0.18 0,0.11 -0.07,0.18 -0.18,0.18l-0.53 0zm-1.23 -0.53c0,-0.88 0.71,-1.58 1.58,-1.58 0.88,0 1.58,0.71 1.58,1.58 0,0.5 -0.23,0.94 -0.59,1.23l-0.65 0 -0.35 0 -0 0 -0.48 0 -0.51 0c-0.36,-0.29 -0.59,-0.73 -0.59,-1.23z"/>
       <path class="fil1 str0" d="M5.7 4.55c0,-0.11 0.07,-0.18 0.18,-0.18l0.53 0c0.11,0 0.18,-0.07 0.18,-0.18 0,-0.11 -0.07,-0.18 -0.18,-0.18l-0.35 0c-0.3,0 -0.53,-0.23 -0.53,-0.53 0,-0.3 0.23,-0.53 0.53,-0.53 0,-0.11 0.07,-0.18 0.18,-0.18 0.11,0 0.18,0.07 0.18,0.18l0.18 0c0.11,0 0.18,0.07 0.18,0.18 0,0.11 -0.07,0.18 -0.18,0.18l-0.53 0c-0.11,0 -0.18,0.07 -0.18,0.18 0,0.11 0.07,0.18 0.18,0.18l0.35 0c0.3,0 0.53,0.23 0.53,0.53 0,0.3 -0.23,0.53 -0.53,0.53 0,0.11 -0.07,0.18 -0.18,0.18 -0.11,0 -0.18,-0.07 -0.18,-0.18l-0.18 0c-0.11,-0 -0.18,-0.07 -0.18,-0.18z"/>
       <path class="fil1 str0" d="M2.53 6.49l-0.53 0c-0.11,0 -0.18,-0.09 -0.18,-0.18 0,-0.09 0.61,-1.07 0.7,-1.23l2.21 -0 0.5 0 0.51 0 0.48 0 -0.77 1.25c-0.07,0.09 -0.18,0.16 -0.3,0.16l-2.62 0 0 -0z"/>
       <path class="fil1 str0" d="M7.23 5.08l0.5 0 1.14 0c0.1,0.16 0.7,1.14 0.7,1.23 0,0.09 -0.07,0.18 -0.18,0.18l-0.53 0 -1.57 0c-0.12,0 -0.23,-0.07 -0.3,-0.16l-0.77 -1.25 0 -0 0.35 0 0.65 0z"/>
       <path class="fil1 str0" d="M6.23 9.48l-3.52 0c-0.11,0 -0.18,-0.07 -0.18,-0.18l0 -2.82 0 -0 2.62 0c0.12,0 0.23,-0.07 0.3,-0.16l0.77 -1.25 0 0 0 4.4 -0 0z"/>
       <path class="fil1 str0" d="M7.3 6.49l1.57 0 0 2.82c0,0.1 -0.07,0.18 -0.18,0.18l-2.46 0 0 -4.39 0.77 1.25c0.07,0.09 0.18,0.16 0.3,0.16z"/>
      </g>
      <g>
       <polyline class="fil1 str0" points="6.23,5.08 6.23,5.08 6.23,9.48 "/>
       <path class="fil1 str0" d="M6.23 9.48l-3.52 0c-0.11,0 -0.18,-0.07 -0.18,-0.18l0 -2.82"/>
       <path class="fil1 str0" d="M6.23 9.48l0 0 2.46 0c0.11,0 0.18,-0.07 0.18,-0.18l0 -2.82 0 -0.01"/>
       <path class="fil1 str0" d="M6.58 5.08l-0.35 0 -0 0 0 0 0.77 1.25c0.07,0.09 0.18,0.16 0.3,0.16l1.57 0 0.53 0c0.11,0 0.18,-0.09 0.18,-0.18 0,-0.09 -0.61,-1.07 -0.7,-1.23l-1.14 0"/>
       <path class="fil1 str0" d="M5.75 5.08l0.48 0 -0.77 1.25c-0.07,0.09 -0.18,0.16 -0.3,0.16l-2.62 0 -0.53 0c-0.11,0 -0.18,-0.09 -0.18,-0.18 0,-0.09 0.61,-1.07 0.7,-1.23l2.21 0"/>
       <line class="fil1 str0" x1="2.88" y1="8.89" x2="5.07" y2= "8.89" />
       <line class="fil1 str0" x1="2.88" y1="8.6" x2="4.17" y2= "8.6" />
       <line class="fil1 str0" x1="2.88" y1="8.32" x2="4.48" y2= "8.32" />
       <line class="fil1 str0" x1="2.88" y1="8.04" x2="3.94" y2= "8.04" />
       <path class="fil1 str0" d="M7.23 5.08l0.5 0c0.28,-0.33 0.44,-0.76 0.44,-1.23"/>
       <path class="fil1 str0" d="M8.17 3.85c0,-1.07 -0.87,-1.94 -1.94,-1.94 -1.07,0 -1.93,0.87 -1.93,1.94 0,0.47 0.17,0.9 0.44,1.23l0.5 0"/>
       <path class="fil1 str0" d="M6.58 5.08l0.65 0c0.36,-0.29 0.59,-0.73 0.59,-1.23"/>
       <path class="fil1 str0" d="M7.82 3.85c0,-0.88 -0.71,-1.58 -1.58,-1.58 -0.87,0 -1.58,0.71 -1.58,1.58 0,0.5 0.23,0.94 0.59,1.23l0.51 0"/>
       <path class="fil1 str0" d="M6.41 3.67l-0.35 0c-0.11,0 -0.18,-0.07 -0.18,-0.18 0,-0.11 0.07,-0.18 0.18,-0.18l0.53 0c0.11,0 0.18,-0.07 0.18,-0.18 0,-0.11 -0.07,-0.18 -0.18,-0.18l-0.18 0c0,-0.11 -0.07,-0.18 -0.18,-0.18 -0.11,0 -0.18,0.07 -0.18,0.18 -0.3,0 -0.53,0.23 -0.53,0.53 0,0.3 0.23,0.53 0.53,0.53l0.35 0c0.11,0 0.18,0.07 0.18,0.18 0,0.11 -0.07,0.18 -0.18,0.18l-0.53 0c-0.11,0 -0.18,0.07 -0.18,0.18 0,0.11 0.07,0.18 0.18,0.18l0.18 0c0,0.11 0.07,0.18 0.18,0.18 0.11,0 0.18,-0.07 0.18,-0.18 0.3,0 0.53,-0.23 0.53,-0.53 -0,-0.3 -0.23,-0.53 -0.53,-0.53z"/>
      </g>
     </g>
    </g>
   </g>
  </g>
 </g>
</svg>
