<?xml version="1.0" encoding="UTF-8"?>
<!DOCTYPE svg PUBLIC "-//W3C//DTD SVG 1.1//EN" "http://www.w3.org/Graphics/SVG/1.1/DTD/svg11.dtd">
<!-- Creator: CorelDRAW -->
<svg xmlns="http://www.w3.org/2000/svg" xml:space="preserve" width="10.5926mm" height="10.5926mm" version="1.1" style="shape-rendering:geometricPrecision; text-rendering:geometricPrecision; image-rendering:optimizeQuality; fill-rule:evenodd; clip-rule:evenodd"
viewBox="0 0 11.11 11.11"
 xmlns:xlink="http://www.w3.org/1999/xlink"
 xmlns:xodm="http://www.corel.com/coreldraw/odm/2003">
 <defs>
  <style type="text/css">
   <![CDATA[
    .fil0 {fill:#50B17E;fill-rule:nonzero}
    .fil1 {fill:white;fill-rule:nonzero}
   ]]>
  </style>
 </defs>
 <g id="Capa_x0020_1">
  <metadata id="CorelCorpID_0Corel-Layer"/>
  <path class="fil0" d="M11.11 5.55c0,3.06 -2.48,5.55 -5.55,5.55 -3.06,0 -5.55,-2.48 -5.55,-5.55 0,-3.06 2.48,-5.55 5.55,-5.55 3.06,0 5.55,2.48 5.55,5.55z"/>
  <g id="_3261759138944">
   <g>
    <g>
     <g>
      <path class="fil1" d="M6.6 6.16l-2.09 0c-0.03,0 -0.06,-0.03 -0.06,-0.06l0 -1.7c0,-0.83 0.25,-1.63 0.73,-2.3l0.13 -0.18c0.01,-0.02 0.02,-0.03 0.03,-0.03 0.1,-0.11 0.29,-0.11 0.4,0 0.01,0.01 0.02,0.02 0.03,0.03l0.15 0.18c0.47,0.67 0.74,1.48 0.74,2.29l0 1.72c-0,0.03 -0.03,0.06 -0.06,0.06zm-2.02 -0.12l1.96 0 0 -1.66c0,-0.78 -0.25,-1.57 -0.71,-2.22l-0.15 -0.18c-0,-0 -0.01,-0.01 -0.02,-0.02 -0.06,-0.07 -0.17,-0.06 -0.23,-0 -0.01,0.01 -0.02,0.02 -0.02,0.02l-0.13 0.18c-0.46,0.65 -0.71,1.43 -0.71,2.23l-0 1.64z"/>
     </g>
     <g>
      <g>
       <path class="fil1" d="M7.12 6.5l-0.52 0c-0.03,0 -0.06,-0.03 -0.06,-0.06l0 -1.04c0,-0.02 0.01,-0.05 0.04,-0.06 0.02,-0.01 0.05,-0 0.07,0.01l0.52 0.52c0.01,0.01 0.02,0.03 0.02,0.04l0 0.52c0,0.03 -0.03,0.06 -0.06,0.06zm-0.46 -0.12l0.4 0 0 -0.43 -0.4 -0.4 0 0.83z"/>
      </g>
     </g>
     <g>
      <g>
       <path class="fil1" d="M6.25 7.37c-0,0 -0,0 -0,0l-1.39 0c-0.03,0 -0.06,-0.03 -0.06,-0.06 0,-0.14 0.03,-0.26 0.09,-0.35l0.09 -0.19c0.01,-0.02 0.03,-0.03 0.06,-0.03l1.04 0c0.02,0 0.05,0.01 0.06,0.03l0.1 0.2c0.05,0.1 0.08,0.22 0.08,0.33 0,0.01 0,0.01 0,0.02 0,0.03 -0.03,0.06 -0.06,0.06zm-1.33 -0.12l1.26 0c-0.01,-0.08 -0.03,-0.16 -0.07,-0.23l-0.08 -0.17 -0.96 0 -0.08 0.17c-0.04,0.07 -0.06,0.15 -0.07,0.23z"/>
      </g>
     </g>
     <g>
      <g>
       <path class="fil1" d="M4.51 6.5l-0.52 0c-0.03,0 -0.06,-0.03 -0.06,-0.06l0 -0.52c0,-0.02 0.01,-0.03 0.02,-0.04l0.52 -0.52c0.02,-0.02 0.04,-0.02 0.07,-0.01 0.02,0.01 0.04,0.03 0.04,0.06l0 1.04c0,0.03 -0.03,0.06 -0.06,0.06zm-0.46 -0.12l0.4 0 0 -0.83 -0.4 0.4 0 0.43z"/>
      </g>
     </g>
     <g>
      <g>
       <path class="fil1" d="M5.55 5.21c-0.18,0 -0.35,-0.07 -0.48,-0.2 -0.27,-0.27 -0.27,-0.69 0,-0.96 0.13,-0.13 0.3,-0.2 0.48,-0.2 0.18,0 0.35,0.07 0.48,0.2 0.27,0.27 0.27,0.69 0,0.96 -0.13,0.13 -0.3,0.2 -0.48,0.2zm0 -1.23c-0.15,0 -0.28,0.06 -0.39,0.16 -0.22,0.22 -0.22,0.56 0,0.78 0.11,0.11 0.25,0.16 0.39,0.16 0.15,0 0.28,-0.06 0.39,-0.16 0.22,-0.22 0.22,-0.56 0,-0.78 -0.11,-0.11 -0.25,-0.16 -0.39,-0.16zm-0 0.99c-0.11,0 -0.22,-0.05 -0.3,-0.13 -0.08,-0.08 -0.13,-0.19 -0.13,-0.31 0,-0.11 0.05,-0.22 0.13,-0.3 0.08,-0.08 0.19,-0.13 0.3,-0.13 0.11,0 0.22,0.05 0.3,0.13 0.08,0.08 0.13,0.19 0.13,0.3 0,0.11 -0.05,0.22 -0.13,0.31 -0.08,0.08 -0.19,0.13 -0.3,0.13zm0 -0.74c-0.08,0 -0.16,0.03 -0.22,0.09 -0.06,0.06 -0.09,0.14 -0.09,0.22 0,0.08 0.03,0.16 0.09,0.22 0.12,0.12 0.31,0.12 0.43,0 0.06,-0.06 0.09,-0.14 0.09,-0.22 0,-0.08 -0.03,-0.16 -0.09,-0.22 -0.06,-0.06 -0.14,-0.09 -0.22,-0.09z"/>
      </g>
     </g>
     <g>
      <path class="fil1" d="M6.47 6.85l-1.84 0c-0.1,0 -0.18,-0.08 -0.18,-0.18l0 -0.57c0,-0.03 0.03,-0.06 0.06,-0.06l2.09 0c0.03,0 0.06,0.03 0.06,0.06l0 0.57c-0,0.1 -0.08,0.18 -0.18,0.18zm-1.9 -0.7l0 0.51c0,0.03 0.02,0.06 0.06,0.06l1.84 0c0.04,0 0.06,-0.02 0.06,-0.06l0 -0.51 -1.96 0z"/>
     </g>
     <g>
      <g>
       <path class="fil1" d="M6.39 3.2l-1.67 0c-0.02,0 -0.04,-0.01 -0.05,-0.03 -0.01,-0.02 -0.01,-0.04 -0.01,-0.06 0.13,-0.39 0.3,-0.73 0.52,-1.03l0.14 -0.19c0,-0 0,-0.01 0.01,-0.01l0.01 -0.01c0.01,-0.01 0.01,-0.01 0.02,-0.02 0.11,-0.11 0.3,-0.11 0.41,0.01l0.03 0.03 0.14 0.19c0.23,0.35 0.4,0.69 0.52,1.03 0.01,0.02 0,0.04 -0.01,0.06 -0.01,0.02 -0.03,0.03 -0.05,0.03zm-1.58 -0.12l1.49 0c-0.11,-0.31 -0.27,-0.61 -0.48,-0.92l-0.14 -0.19c-0.08,-0.08 -0.18,-0.08 -0.24,-0.01 -0,0.01 -0.01,0.01 -0.02,0.02l-0 0 -0.14 0.19c-0.2,0.27 -0.36,0.58 -0.48,0.92z"/>
      </g>
     </g>
     <g>
      <path class="fil1" d="M5.11 8.96c-0.03,0 -0.06,-0.03 -0.06,-0.06l-0.02 -1.32c0,-0.03 0.03,-0.06 0.06,-0.06 0,0 0,0 0,0 0.03,0 0.06,0.03 0.06,0.06l0.02 1.32c0,0.03 -0.03,0.06 -0.06,0.06 0,0 0,0 0,0z"/>
     </g>
     <g>
      <path class="fil1" d="M4.07 9.33c-0,0 -0.01,-0 -0.02,-0 -0.03,-0.01 -0.05,-0.04 -0.05,-0.08l0.48 -1.86c0.01,-0.03 0.04,-0.05 0.08,-0.05 0.03,0.01 0.05,0.04 0.04,0.08l-0.48 1.86c-0.01,0.03 -0.03,0.05 -0.06,0.05z"/>
     </g>
     <g>
      <path class="fil1" d="M7.05 9.33c-0.03,0 -0.05,-0.02 -0.06,-0.05l-0.48 -1.86c-0.01,-0.03 0.01,-0.07 0.04,-0.08 0.03,-0.01 0.07,0.01 0.08,0.04l0.48 1.86c0.01,0.03 -0.01,0.07 -0.05,0.08 -0.01,0 -0.01,0 -0.02,0z"/>
     </g>
     <g>
      <path class="fil1" d="M5.53 8.96c-0.03,0 -0.06,-0.03 -0.06,-0.06l-0.02 -1.32c0,-0.03 0.03,-0.06 0.06,-0.06 0,0 0,0 0,0 0.03,0 0.06,0.03 0.06,0.06l0.02 1.32c0,0.03 -0.03,0.06 -0.06,0.06 0,0 0,0 0,0z"/>
     </g>
     <g>
      <path class="fil1" d="M5.95 8.96c-0.03,0 -0.06,-0.03 -0.06,-0.06l-0.02 -1.32c0,-0.03 0.03,-0.06 0.06,-0.06 0,0 0,0 0,0 0.03,0 0.06,0.03 0.06,0.06l0.02 1.32c0,0.03 -0.03,0.06 -0.06,0.06 0,0 0,0 0,0z"/>
     </g>
    </g>
   </g>
  </g>
 </g>
</svg>
